<?xml version="1.0" encoding="UTF-8" standalone="yes"?>
<svg xmlns="http://www.w3.org/2000/svg" version="1.2" baseProfile="tiny-ps" viewBox="0 0 400 400">
  <title>Derploid Entertainment logo</title>
  <desc>The Derploid Entertainment logo: a black-and-white, clownish, derpy face with a chipped tooth and X-shaped eyes like chromosomes</desc>
  <rect fill="white" width="400" height="400"/>
  <g fill="black" transform="translate(0,400) scale(0.1,-0.1)">
    <path d="M1630 3520 c-34 -8 -58 -29 -91 -80 l-16 -24 -57 18 c-44 14 -80 17 -154 14 -178 -8 -225 -57 -253 -264 -17 -134 -7 -184 57 -271 15 -21 14 -24 -23 -58 -44 -41 -55 -42 -111 -15 -47 23 -153 27 -262 10 -211 -34 -479 -173 -533 -276 -39 -75 -26 -218 33 -371 32 -83 67 -128 117 -149 50 -22 78 -17 179 27 l94 41 56 -27 c54 -26 56 -29 50 -59 -4 -17 -9 -55 -13 -83 l-5 -53 50 -47 c57 -53 124 -105 162 -125 37 -19 100 -69 100 -79 0 -8 34 -66 95 -159 12 -19 47 -73 77 -120 100 -156 437 -671 468 -715 137 -199 138 -199 345 -200 168 0 205 8 253 58 17 17 96 131 176 252 80 121 154 234 166 250 12 17 38 57 59 90 21 33 77 119 123 190 117 180 217 340 224 358 3 9 51 46 107 84 56 37 123 87 150 112 43 40 47 48 47 91 0 26 -5 61 -11 79 -13 37 -3 54 45 75 61 27 68 27 141 -8 124 -59 181 -57 243 7 65 68 129 276 119 393 -6 78 -29 118 -101 173 -199 154 -569 247 -715 181 -56 -26 -65 -25 -107 8 -36 29 -43 52 -20 74 24 24 44 72 56 133 11 53 10 72 -9 159 -39 184 -85 227 -253 234 -73 3 -111 0 -147 -12 -67 -22 -67 -22 -92 23 -27 48 -55 62 -139 68 -76 6 -208 -12 -230 -31 -8 -8 -30 -21 -47 -30 -31 -15 -35 -15 -65 0 -18 9 -40 22 -48 29 -33 29 -208 44 -290 25z m245 -134 c38 -25 45 -54 44 -194 0 -160 -9 -187 -74 -230 -27 -19 -51 -40 -53 -48 -5 -21 15 -43 54 -59 62 -26 69 -49 69 -235 0 -145 -2 -169 -19 -197 -24 -38 -54 -53 -109 -52 -69 0 -109 19 -133 63 -20 34 -22 52 -20 145 2 115 -6 156 -34 171 -30 16 -76 12 -101 -9 -22 -18 -24 -28 -29 -138 -7 -164 -17 -177 -136 -176 -73 1 -121 23 -139 66 -17 41 -17 221 1 265 13 33 53 72 106 105 32 19 36 54 8 67 -119 54 -133 76 -127 215 6 158 33 190 159 190 71 0 80 -2 105 -27 25 -26 27 -32 25 -110 -2 -96 11 -154 38 -168 22 -12 70 -13 88 -2 22 15 32 74 32 197 1 129 9 152 62 175 34 15 153 6 183 -14z m469 -5 c22 -21 24 -31 28 -171 6 -172 13 -190 79 -190 29 0 42 6 58 26 18 23 21 41 21 128 0 101 0 103 31 132 28 27 36 29 102 29 130 0 162 -45 155 -222 -4 -118 -12 -132 -95 -169 -30 -14 -53 -30 -53 -39 0 -8 27 -36 59 -61 33 -25 65 -60 73 -77 14 -35 18 -233 5 -280 -10 -37 -63 -59 -143 -59 -112 -1 -134 30 -134 187 0 92 -3 108 -20 125 -44 44 -138 15 -141 -42 -1 -13 -2 -72 -3 -133 -1 -97 -4 -114 -24 -142 -25 -36 -71 -53 -139 -53 -61 0 -100 37 -113 109 -12 65 -12 173 -1 264 10 73 25 94 89 122 46 20 42 60 -8 88 -60 32 -70 49 -82 128 -13 97 -5 252 16 284 21 33 67 45 149 41 53 -3 73 -8 91 -25z m-1337 -704 c15 -15 18 -36 19 -124 l1 -107 34 -22 c19 -12 75 -36 125 -53 475 -163 956 -183 1434 -62 122 32 289 90 333 118 38 24 40 32 21 92 -3 8 -2 41 2 75 11 97 26 106 171 106 154 0 276 -25 388 -79 97 -47 161 -107 171 -159 14 -76 -42 -219 -101 -258 -26 -17 -88 -7 -164 27 -60 26 -71 25 -146 -21 -36 -22 -68 -40 -71 -40 -10 0 -53 52 -60 72 -3 10 0 26 7 34 20 24 145 94 168 94 12 0 60 -16 107 -35 68 -27 91 -32 106 -24 22 12 48 67 48 102 0 66 -256 169 -445 179 -58 3 -65 -5 -65 -73 0 -58 1 -61 30 -72 49 -19 37 -39 -52 -84 -217 -109 -488 -190 -788 -237 -398 -62 -947 38 -1357 247 -74 38 -84 54 -44 68 21 7 30 19 35 41 22 108 -12 125 -185 92 -107 -20 -244 -76 -287 -117 -29 -28 -32 -36 -27 -67 9 -50 31 -80 59 -80 13 0 57 13 97 30 41 16 80 30 88 30 16 0 136 -63 170 -89 17 -13 22 -24 17 -38 -7 -22 -53 -73 -66 -73 -4 0 -35 18 -69 40 -70 45 -90 48 -149 20 -23 -11 -64 -25 -92 -32 -70 -16 -90 -3 -131 85 -26 57 -33 85 -33 137 -1 57 3 70 27 102 49 64 175 127 317 158 116 26 330 24 357 -3z m73 -501 c50 -26 173 -72 297 -110 239 -74 530 -107 766 -88 221 19 526 87 731 163 95 36 112 39 132 28 49 -26 164 -184 164 -226 0 -12 -10 -31 -21 -42 -24 -22 -174 -111 -187 -111 -5 0 -20 -8 -33 -18 -69 -52 -304 -131 -479 -162 -63 -11 -142 -26 -175 -32 -72 -14 -526 -15 -570 -1 -36 11 -60 56 -70 128 -17 120 -44 126 -109 26 -25 -38 -53 -76 -61 -85 -32 -31 -85 -20 -216 48 -260 133 -406 226 -416 264 -8 32 15 77 83 168 49 65 60 74 87 74 18 0 52 -11 77 -24z m184 -595 c61 -35 88 -60 121 -109 14 -20 51 -76 82 -124 111 -165 177 -263 182 -268 3 -3 17 -21 31 -40 13 -19 28 -39 33 -45 4 -5 30 -40 56 -77 81 -112 131 -159 182 -168 50 -10 112 -3 149 16 14 7 45 36 68 66 77 97 205 272 261 357 31 46 82 122 114 170 97 146 104 155 128 177 30 28 125 77 139 72 16 -5 -12 -52 -227 -382 -50 -78 -95 -146 -100 -151 -4 -6 -34 -48 -65 -95 -32 -47 -76 -110 -98 -140 -22 -30 -48 -66 -57 -80 -10 -13 -28 -35 -40 -49 -13 -13 -23 -28 -23 -32 0 -17 -87 -57 -137 -64 -77 -10 -178 4 -216 29 -48 33 -210 250 -382 515 -27 42 -59 89 -70 103 -11 15 -33 49 -50 77 -16 28 -54 88 -83 134 -30 45 -60 94 -68 109 -13 25 -13 28 2 28 9 0 40 -13 68 -29z m390 -142 c32 -9 68 -40 176 -150 180 -184 162 -184 336 -5 80 83 144 141 167 151 39 16 117 21 117 6 0 -8 -125 -202 -229 -355 -25 -37 -71 -95 -101 -127 l-55 -59 -61 0 c-47 0 -68 5 -88 21 -29 23 -108 126 -201 264 -34 50 -77 113 -97 141 -34 49 -68 107 -68 119 0 9 63 5 104 -6z" />
  </g>
</svg>
